<?xml version="1.0" encoding="UTF-8" standalone="no"?><!DOCTYPE svg PUBLIC "-//W3C//DTD SVG 1.1//EN" "http://www.w3.org/Graphics/SVG/1.1/DTD/svg11.dtd"><svg width="100%" height="100%" viewBox="0 0 800 800" version="1.1" xmlns="http://www.w3.org/2000/svg" xmlns:xlink="http://www.w3.org/1999/xlink" xml:space="preserve" xmlns:serif="http://www.serif.com/" style="fill-rule:evenodd;clip-rule:evenodd;stroke-linejoin:round;stroke-miterlimit:2;"><g><g><path d="M620.75,474.527l-2.055,-0.839c-8.526,-3.504 -18.278,0.571 -21.776,9.096c-3.503,8.525 0.572,18.275 9.097,21.777l2.153,0.881c2.059,0.838 4.19,1.235 6.284,1.235c6.588,-0 12.828,-3.927 15.466,-10.402c3.472,-8.536 -0.632,-18.275 -9.169,-21.748Z" style="fill-rule:nonzero;"/></g></g><g><g><path d="M785.211,465.489c-30.775,-27.98 -80.527,-67.466 -142.772,-96.684c-36.842,-17.288 -73.639,-29.055 -107.264,-37.06c33.627,-8.006 70.423,-19.776 107.267,-37.064c62.247,-29.22 111.994,-68.704 142.775,-96.687c14.822,-13.486 18.905,-33.899 10.403,-51.997c-8.498,-18.092 -26.797,-27.977 -46.625,-25.186c-41.151,5.786 -103.286,18.817 -165.597,48.045c-50.596,23.752 -93.009,54.225 -124.492,80.713c-0.743,-7.867 -1.583,-15.613 -2.508,-23.21c13.032,-14.087 20.361,-32.589 20.361,-52.04c0,-42.33 -34.429,-76.767 -76.751,-76.767c-42.33,-0 -76.767,34.439 -76.767,76.767c-0,19.447 7.336,37.936 20.357,52.025c-0.926,7.595 -1.764,15.342 -2.509,23.217c-31.494,-26.488 -73.909,-56.963 -124.48,-80.706c-62.293,-29.221 -124.432,-42.255 -165.59,-48.043c-19.825,-2.775 -38.138,7.099 -46.638,25.196c-8.5,18.098 -4.415,38.506 10.405,51.994c30.772,27.978 80.523,67.462 142.77,96.682c36.844,17.288 73.639,29.058 107.267,37.064c-33.626,8.004 -70.423,19.772 -107.268,37.06c-62.244,29.219 -111.993,68.703 -142.774,96.689c-14.817,13.483 -18.901,33.889 -10.4,51.989c7.546,16.064 22.817,25.661 40.024,25.661c2.178,-0 4.386,-0.153 6.612,-0.467c41.167,-5.789 103.316,-18.827 165.595,-48.063c49.193,-23.086 90.657,-52.562 121.71,-78.376c0.595,12.071 1.347,24.307 2.251,36.618c2.213,30.216 5.36,142.397 9.352,173.674c7.12,55.978 15.786,103.617 21.797,133.701c2.712,13.661 14.333,23.208 28.262,23.216l0.018,-0c13.928,-0 25.559,-9.538 28.287,-23.205c8.756,-43.931 16.086,-88.917 21.786,-133.715c4.014,-31.607 7.161,-143.786 9.35,-173.668c0.905,-12.317 1.656,-24.559 2.253,-36.64c27.386,22.767 63.33,48.778 105.627,70.486c2.44,1.251 5.042,1.844 7.607,1.844c6.058,-0 11.905,-3.31 14.86,-9.072c4.209,-8.199 0.973,-18.258 -7.227,-22.469c-54.518,-27.986 -97.992,-63.708 -124.859,-88.744c-6.983,-6.511 -13.203,-12.626 -18.634,-18.167c1.889,0.156 3.825,0.327 5.826,0.516c0.016,0.001 0.03,0.003 0.044,0.003c0.039,0.003 0.073,0.006 0.112,0.009c45.655,4.277 114.507,16.145 183.23,48.392c58.483,27.452 105.42,64.727 134.494,91.161c5.575,5.074 3.715,10.866 2.654,13.121c-1.056,2.251 -4.315,7.361 -11.765,6.321c-32.341,-4.548 -63.922,-11.639 -93.867,-21.075c-8.786,-2.765 -18.163,2.11 -20.933,10.9c-2.77,8.791 2.109,18.163 10.9,20.933c31.697,9.989 65.092,17.492 99.251,22.292c2.229,0.314 4.436,0.468 6.615,0.468c17.204,-0.002 32.471,-9.594 40.014,-25.652c8.493,-18.098 4.409,-38.509 -10.416,-52Zm-442.895,-97.205c-30.052,28.002 -78.718,67.41 -139.885,96.116c-58.515,27.47 -117.165,39.755 -156.065,45.227c-7.444,1.056 -10.714,-4.077 -11.774,-6.33c-1.058,-2.255 -2.919,-8.044 2.647,-13.108c29.078,-26.437 76.016,-63.714 134.494,-91.166c68.726,-32.246 137.578,-44.115 183.245,-48.392c2.061,-0.195 4.064,-0.373 6.003,-0.534c-5.437,5.544 -11.675,11.673 -18.665,18.187Zm12.722,-55.406c-45.671,-4.276 -114.544,-16.148 -183.297,-48.409c-58.488,-27.455 -105.424,-64.728 -134.496,-91.161c-5.57,-5.071 -3.711,-10.86 -2.651,-13.113c0.962,-2.05 3.747,-6.472 9.845,-6.472c0.611,0 1.253,0.046 1.933,0.141c38.887,5.469 97.531,17.753 156.061,45.208c61.889,29.058 111.009,69.04 141.314,97.462c0.023,0.022 0.044,0.043 0.067,0.064c0,0 0.002,0 0.002,0.002c6.392,6 12.131,11.653 17.179,16.803c-1.928,-0.159 -3.914,-0.334 -5.957,-0.525Zm44.965,417.733c-4.503,-24.2 -9.708,-54.88 -14.473,-89.499l28.931,0c-4.098,29.736 -8.991,60.072 -14.458,89.499Zm18.745,-122.877l-37.479,0c-2.341,-19.651 -4.346,-39.184 -5.972,-58.411l49.412,0c-1.615,19.089 -3.609,38.632 -5.961,58.411Zm8.429,-147.787l-54.361,-0c-1.018,-16.11 -1.747,-56.977 -2.21,-72.466c12.447,-11.883 22.314,-22.279 29.402,-30.119c7.084,7.835 16.945,18.222 29.381,30.1c-0.462,15.497 -1.194,56.372 -2.212,72.485Zm-54.868,-182.31c0.7,-10.465 1.568,-20.754 2.588,-30.809c8.019,2.775 16.5,4.244 25.109,4.244c8.602,-0 17.077,-1.467 25.092,-4.239c1.024,10.069 1.89,20.362 2.591,30.823c-11.637,11.202 -20.919,21 -27.678,28.472c-6.763,-7.475 -16.053,-17.281 -27.702,-28.491Zm55.711,-70.221c-0.145,0.121 -0.287,0.246 -0.426,0.375c-7.742,6.39 -17.517,9.904 -27.586,9.904c-10.264,0 -20.21,-3.643 -28.003,-10.256c-0.01,-0.008 -0.019,-0.016 -0.028,-0.023c-9.761,-8.246 -15.361,-20.31 -15.361,-33.096c0.001,-23.925 19.467,-43.39 43.392,-43.39c23.917,-0 43.373,19.464 43.373,43.39c-0.001,12.786 -5.598,24.85 -15.361,33.096Zm16.941,105.459c-2.033,0.191 -4.011,0.366 -5.93,0.522c5.061,-5.163 10.816,-10.833 17.225,-16.849l-0.003,0.002c30.292,-28.42 79.399,-68.405 141.327,-97.475c58.543,-27.463 117.183,-39.744 156.067,-45.211c7.455,-1.047 10.706,4.073 11.762,6.322c1.06,2.256 2.921,8.048 -2.651,13.117c-29.075,26.436 -76.013,63.713 -134.496,91.164c-68.756,32.26 -137.629,44.128 -183.301,48.408Z" style="fill-rule:nonzero;"/></g></g></svg>