<?xml version="1.0" encoding="UTF-8" standalone="no"?><!DOCTYPE svg PUBLIC "-//W3C//DTD SVG 1.1//EN" "http://www.w3.org/Graphics/SVG/1.1/DTD/svg11.dtd"><svg width="100%" height="100%" viewBox="0 0 512 512" version="1.1" xmlns="http://www.w3.org/2000/svg" xmlns:xlink="http://www.w3.org/1999/xlink" xml:space="preserve" xmlns:serif="http://www.serif.com/" style="fill-rule:evenodd;clip-rule:evenodd;stroke-linejoin:round;stroke-miterlimit:2;"><g><path d="M250.077,49.875c-16.934,3.82 -33.38,13.971 -43.888,27.069l-13.887,22.48l-71.229,0.327l-71.128,0.328l-7.768,4.147c-22.09,11.789 -28.534,24.238 -35.887,67.353c-2.452,14.626 -2.541,53.047 -0.157,67.674c4.174,24.995 10.478,43.551 20.113,59.378c6.925,11.352 11.776,14.425 21.637,19.774l7.547,4.038l142.253,0.655l8.213,11.116c6.43,7.859 15.38,14.954 25.443,20.084c14.792,7.641 14.691,7.641 64.661,8.077l45.033,0.328l-0.007,2.947c-0.014,5.894 -4.276,19.21 -10.249,31.981c-4.962,10.697 -6.378,12.989 -7.787,12.443c-0.905,-0.436 -5.034,-1.528 -9.162,-2.401c-13.695,-3.056 -25.087,0.437 -40.127,12.553c-12.516,10.151 -15.642,11.57 -24.508,11.57c-8.866,-0 -11.985,-1.419 -24.455,-11.57c-14.38,-11.571 -33.654,-15.391 -46.657,-12.88c-8.97,1.637 -15.123,4.802 -25.216,12.88c-12.516,10.151 -7.015,27.287 7.419,15.717c12.516,-10.151 15.642,-11.57 24.508,-11.57c8.866,0 20.489,1.638 32.153,11.352c12.469,10.26 21.326,14.19 32.206,14.19c10.982,-0 18.848,-3.493 32.272,-14.299c4.643,-3.711 10.597,-7.75 13.118,-8.951c5.649,-2.837 15.925,-2.947 21.561,-0.436c3.22,1.528 3.723,2.183 3.214,4.257c-0.305,1.419 -0.922,6.767 -1.338,12.116c-0.522,7.968 -0.928,9.496 -2.237,9.059c-8.356,-2.51 -21.86,-0.982 -30.031,3.493c-2.219,1.201 -7.669,5.239 -12.11,8.841c-12.616,10.042 -15.642,11.461 -24.508,11.461c-8.866,0 -11.986,-1.419 -24.455,-11.57c-10.056,-8.077 -16.194,-11.243 -25.056,-12.88c-13.091,-2.51 -24.384,1.31 -38.817,12.88c-12.516,10.151 -23.643,11.57 -32.509,11.57c-8.865,0 -11.985,-1.419 -24.454,-11.57c-10.056,-8.077 -16.195,-11.243 -25.057,-12.88c-13.091,-2.51 -15.755,17.028 -6.89,17.028c8.866,-0 11.986,1.419 24.455,11.57c14.38,11.57 25.655,15.39 38.758,12.88c8.869,-1.638 23.022,-4.803 33.116,-12.88c12.516,-10.151 15.642,-11.57 24.508,-11.57c8.866,-0 11.986,1.419 24.455,11.57c10.056,8.077 16.194,11.242 25.157,12.88c12.99,2.51 24.283,-1.31 38.716,-12.88c12.516,-10.151 15.643,-11.57 24.509,-11.57c8.865,-0 11.985,1.419 24.454,11.57c14.38,11.57 25.655,15.39 38.657,12.88c8.971,-1.638 15.124,-4.803 25.217,-12.88c12.516,-10.151 15.643,-11.57 24.508,-11.57c9.067,-0 11.885,1.419 26.165,12.88c5.43,4.475 12.069,8.841 14.686,9.823c10.972,4.148 22.66,3.275 32.748,-2.183c5.144,-2.728 16.049,-12.989 16.053,-15.063c0.004,-1.528 -9.241,-11.57 -10.652,-11.57c-0.504,0 -2.825,1.965 -4.947,4.476c-2.222,2.401 -5.251,5.13 -6.764,6.003l-2.724,1.528l-4.51,-9.933c-2.607,-5.457 -4.61,-10.806 -4.607,-11.788c0.003,-1.31 1.616,-2.074 6.656,-3.166c3.629,-0.764 8.771,-2.51 11.394,-4.038c5.346,-2.838 16.251,-13.098 16.256,-15.172c0.003,-1.528 -9.242,-11.57 -10.653,-11.57c-0.504,-0 -2.825,1.965 -4.947,4.475c-5.05,5.567 -10.296,8.514 -16.746,9.387l-4.938,0.655l0.01,-4.257c-0.079,-9.169 1.023,-19.538 -5.393,-33.291c-10.527,-22.267 -17.229,-23.847 -14.574,-58.505c6.183,-32.655 -8.848,-38.203 -17.878,-54.358l-4.113,-7.313l2.539,-9.169c5.082,-19.101 7.033,-35.146 7.091,-59.924c0.14,-17.246 -0.343,-25.869 -1.632,-34.928c-9.228,-61.016 -36.228,-104.895 -73.572,-119.193l-7.952,-3.057l-49.365,-0.218c-38.183,-0.109 -50.878,0.109 -55.918,1.31Zm38.728,25.869c-14.343,15.827 -24.359,33.837 -32.274,58.614c-16.642,51.41 -13.667,115.373 7.581,163.291c6.514,14.735 13.843,26.087 24.093,37.438l9.044,10.042l-20.654,0c-14.809,0 -22.465,-0.545 -27.097,-1.637c-19.03,-4.912 -38.027,-23.686 -50.358,-50.1c-23.859,-51.192 -23.689,-124.76 0.407,-175.952c12.453,-26.306 31.437,-45.08 50.691,-50.21c3.428,-0.873 13.101,-1.419 26.5,-1.419l21.157,-0.109l-9.09,10.042Zm65.908,-8.405c19.13,4.912 37.927,23.686 50.458,50.319c14.136,30.235 20.487,72.149 16.673,109.37c-1.032,10.587 -4.504,30.562 -5.413,31.544c-0.202,0.328 -3.421,-1.855 -7.041,-4.802c-5.632,-4.476 -6.535,-5.676 -6.127,-7.968c5.209,-30.781 4.382,-65.273 -2.405,-92.779c-7.784,-31.872 -22.338,-55.34 -40.652,-65.054c-7.446,-4.039 -8.352,-4.257 -17.52,-4.257c-9.168,-0 -10.075,0.218 -17.439,4.148c-22.091,11.788 -37.572,40.604 -44.925,83.719c-2.656,15.827 -2.541,52.938 0.342,69.966c6.558,39.294 18.845,78.327 42.127,80.444c3.521,2.074 7.946,5.458 9.957,7.532c3.818,4.147 8.932,14.844 7.319,15.39c-1.614,0.655 -11.381,-1.746 -17.319,-4.148c-21.439,-8.623 -41.425,-36.02 -51.622,-70.293c-12.595,-42.46 -12.387,-89.068 0.505,-130.873c15.936,-51.519 49.553,-80.772 83.082,-72.258Zm-174.24,50.095c-0.001,0.218 6.505,-10.364 3.467,-3.596c-25.217,56.649 -25.379,126.506 -0.424,183.156c3.007,6.767 2.523,7.876 2.522,8.094c-0,0.218 -28.008,0.437 -62.262,0.437c-73.546,-0 -65.219,5.44 -76.775,-7.222c-6.03,-6.549 -8.54,-10.478 -12.248,-18.664c-14.535,-31.982 -18.47,-72.914 -11.023,-112.863c2.346,-12.552 5.899,-23.795 11.366,-35.583c5.772,-12.771 7.948,-9.502 15.41,-12.34c3.932,-1.419 13.101,-1.747 67.303,-1.747c34.455,-0.109 62.664,0.109 62.664,0.328Zm170.834,-14.948c7.852,2.838 18.804,15.499 24.717,28.707c12.329,27.178 17.088,60.47 13.582,95.18c-0.619,6.221 -1.437,11.57 -1.841,12.006c-0.303,0.437 -4.029,-0.327 -8.157,-1.746c-15.502,-5.349 -34.743,-6.331 -49.561,-2.401c6.289,-38.96 1.274,-77.726 -12.781,-116.338c-0,0 2.986,-4.602 6.217,-7.877c8.987,-8.95 17.556,-11.351 27.824,-7.531Zm-49.073,47.262c9.384,-10.439 17.059,78.849 0.484,95.835c-2.22,1.31 -4.237,2.293 -4.337,2.074c-0.201,-0.218 -0.997,-4.693 -1.891,-10.042c-2.484,-15.172 -2.93,-40.167 -1.081,-55.339c1.744,-13.644 6.051,-31.666 6.825,-32.528Zm68.776,102.057c22.049,6.44 45.754,24.232 55.676,46.717c5.512,12.334 11.552,13.5 8.17,39.403c-3.516,26.919 5.341,42.788 15.468,63.636c6.117,12.552 4.415,20.738 4.394,29.798c-0.027,11.897 3.461,28.379 8.172,38.53c1.003,2.183 1.401,4.039 0.898,4.039c-0.403,0 -5.533,-3.711 -11.265,-8.295c-12.369,-9.824 -18.104,-12.99 -27.269,-14.627c-13.091,-2.51 -24.383,1.31 -38.817,12.88c-12.516,10.151 -15.643,11.57 -24.508,11.57c-8.564,0 -12.489,-1.746 -22.645,-10.042c-3.318,-2.729 -6.134,-5.021 -6.235,-5.13c-0.704,-0.437 1.875,-26.524 3.299,-32.2c0.916,-3.929 5.071,-14.517 9.222,-23.467c8.405,-18.338 11.25,-28.925 12.295,-45.298c0.632,-11.788 -0.759,-20.084 -5.27,-29.689c-3.509,-7.422 -13.559,-18.338 -20.502,-22.158c-14.297,-1.535 -21.11,-19.865 -26.918,-35.474c-2.703,-7.095 -3.108,-6.549 8.997,-13.098c7.768,-4.257 15.532,-7.095 23.897,-8.732c6.754,-1.419 25.793,-0.437 32.941,1.637Z" style="fill-rule:nonzero;"/></g></svg>